<svg height="69" version="1.1" width="69" id="Layer_1" xmlns="http://www.w3.org/2000/svg" xmlns:xlink="http://www.w3.org/1999/xlink" x="0px" y="0px"
	 viewBox="0 0 69 69" style="enable-background:new 0 0 69 69;" xml:space="preserve">
<style type="text/css">
	.st0{fill:url(#SVGID_1_);}
	.st1{fill:#195557;}
</style>
<g>
	
		<linearGradient id="SVGID_1_" gradientUnits="userSpaceOnUse" x1="33.8967" y1="8.8514" x2="35.0979" y2="59.404" gradientTransform="matrix(1 0 0 -1 0 69.9559)">
		<stop  offset="0" style="stop-color:#B0D3CE"/>
		<stop  offset="1" style="stop-color:#FFEDCE"/>
	</linearGradient>
	<path class="st0" d="M34.5,0L34.5,0C53.6,0,69,15.4,69,34.5l0,0C69,53.5,53.6,69,34.5,69l0,0C15.5,69,0,53.5,0,34.5l0,0
		C0,15.4,15.5,0,34.5,0z"/>
</g>
<path class="st1" d="M38.9,40l2.2-2.2c0.3-0.3,0.7-0.5,1.1-0.6c0.4-0.1,0.8,0,1.2,0.1l2.7,1.1c0.4,0.2,0.7,0.4,1,0.8
	s0.4,0.8,0.4,1.2v5c0,0.3-0.1,0.6-0.2,0.9c-0.1,0.3-0.3,0.5-0.5,0.7c-0.2,0.2-0.5,0.4-0.7,0.5c-0.3,0.1-0.6,0.1-0.9,0.1
	c-19.1-1.2-23-17.4-23.7-23.6c0-0.3,0-0.6,0.1-0.9c0.1-0.3,0.2-0.6,0.5-0.8c0.2-0.2,0.5-0.4,0.7-0.5c0.3-0.1,0.6-0.2,0.9-0.2h4.8
	c0.4,0,0.9,0.1,1.2,0.4c0.4,0.2,0.6,0.6,0.8,1l1.1,2.7c0.2,0.4,0.2,0.8,0.1,1.2c-0.1,0.4-0.3,0.8-0.6,1.1l-2.2,2.2
	C28.9,30.1,30.2,38.9,38.9,40z"/>
</svg>
