<svg width="45" height="38" viewBox="0 0 45 38" fill="none" xmlns="http://www.w3.org/2000/svg">
<path d="M12.6435 37.7718C14.1216 37.7718 15.3198 36.6461 15.3198 35.2573C15.3198 33.8686 14.1216 32.7428 12.6435 32.7428C11.1654 32.7428 9.96716 33.8686 9.96716 35.2573C9.96716 36.6461 11.1654 37.7718 12.6435 37.7718Z" fill="#195557"/>
<path d="M28.9039 37.7718C30.382 37.7718 31.5802 36.6461 31.5802 35.2573C31.5802 33.8686 30.382 32.7428 28.9039 32.7428C27.4258 32.7428 26.2275 33.8686 26.2275 35.2573C26.2275 36.6461 27.4258 37.7718 28.9039 37.7718Z" fill="#195557"/>
<path d="M36.1359 8.01101C36.0253 7.88281 35.8857 7.77924 35.7274 7.70774C35.569 7.63624 35.3957 7.5986 35.22 7.59751H10.4548L11.228 9.83264H33.6618L30.4859 23.2435H12.6435L7.2075 7.07225C7.1487 6.90066 7.04659 6.74497 6.90989 6.61848C6.77319 6.49199 6.60594 6.39845 6.42243 6.34583L1.54551 4.9377C1.39555 4.8944 1.23799 4.87928 1.08181 4.8932C0.925634 4.90712 0.773903 4.9498 0.635282 5.01881C0.355326 5.15818 0.145765 5.39634 0.0527001 5.68088C-0.0403644 5.96542 -0.00930887 6.27304 0.139035 6.53607C0.287378 6.7991 0.540859 6.99599 0.843713 7.08343L5.11399 8.31275L10.5738 24.5175L8.62299 26.015L8.46836 26.1603C7.98582 26.6828 7.71232 27.347 7.69495 28.0385C7.67758 28.73 7.91743 29.4056 8.3732 29.9489C8.6974 30.3193 9.10938 30.6133 9.57618 30.8073C10.043 31.0014 10.5516 31.0901 11.0615 31.0664H30.9141C31.2295 31.0664 31.5321 30.9487 31.7552 30.7391C31.9782 30.5295 32.1036 30.2453 32.1036 29.9489C32.1036 29.6525 31.9782 29.3682 31.7552 29.1586C31.5321 28.949 31.2295 28.8313 30.9141 28.8313H10.8711C10.7342 28.8269 10.6007 28.7894 10.4837 28.7224C10.3666 28.6554 10.27 28.5612 10.203 28.4488C10.136 28.3365 10.101 28.2098 10.1014 28.081C10.1017 27.9522 10.1374 27.8257 10.205 27.7137L13.0717 25.4786H31.4374C31.7124 25.4849 31.9812 25.4015 32.1981 25.2426C32.415 25.0836 32.5665 24.859 32.6269 24.6069L36.3976 8.96094C36.4338 8.79433 36.429 8.62216 36.3837 8.45755C36.3383 8.29293 36.2536 8.14021 36.1359 8.01101Z" fill="#195557"/>
<circle cx="35.5" cy="9.5" r="9.5" fill="#FFEDCD"/>
<path d="M37.68 11.79V13H33.66V11.79H35.04V7.17C34.9867 7.25 34.8967 7.34 34.77 7.44C34.65 7.53333 34.51 7.62667 34.35 7.72C34.1967 7.80667 34.0367 7.88 33.87 7.94C33.71 8 33.5633 8.03 33.43 8.03V6.79C33.61 6.79 33.7933 6.74333 33.98 6.65C34.1667 6.55 34.3367 6.44333 34.49 6.33C34.65 6.21 34.78 6.1 34.88 6C34.98 5.9 35.0333 5.84333 35.04 5.83H36.41V11.79H37.68Z" fill="black"/>
</svg>
