<?xml version="1.0" encoding="utf-8"?>
<!-- Generator: Adobe Illustrator 24.1.2, SVG Export Plug-In . SVG Version: 6.00 Build 0)  -->
<svg version="1.1" xmlns="http://www.w3.org/2000/svg" xmlns:xlink="http://www.w3.org/1999/xlink" x="0px" y="0px"
	 viewBox="0 0 62.1 62.1" style="enable-background:new 0 0 62.1 62.1;" xml:space="preserve">
<style type="text/css">
	.st0{fill:url(#dkhnV48DO_1_);}
	.st1{fill:#195557;}
	.st2{fill-opacity:0;stroke:#000000;stroke-opacity:0;}
</style>
<g id="Layer_2">
</g>
<g id="Layer_1">
	<g>
		<g>
			<g>
				<g>
					
						<linearGradient id="dkhnV48DO_1_" gradientUnits="userSpaceOnUse" x1="32.1251" y1="619.9172" x2="28.8551" y2="580.2772" gradientTransform="matrix(1 0 0 -1 0 636.8235)">
						<stop  offset="0" style="stop-color:#FFEDCD"/>
						<stop  offset="1" style="stop-color:#B0D3CE"/>
					</linearGradient>
					<path id="dkhnV48DO" class="st0" d="M61.1,31.3c0,16.6-13.5,30.2-30.1,30.2c-16.6,0-30.1-13.5-30.1-30.2S14.3,1.1,30.9,1.1
						C47.6,1.1,61.1,14.6,61.1,31.3z"/>
				</g>
			</g>
			<g>
				<g>
					<path id="aaAIRxbN9" class="st1" d="M36.8,34.2c0.3-0.3,0.6-0.4,1-0.5c0.4-0.1,0.8,0,1.1,0.1c0.2,0.1,2.2,0.9,2.4,1
						c0.4,0.1,0.7,0.4,0.9,0.7s0.3,0.7,0.3,1.1c0,0.5,0,4,0,4.5c0,0.3-0.1,0.5-0.2,0.8c-0.1,0.2-0.3,0.5-0.5,0.6
						c-0.2,0.2-0.4,0.3-0.7,0.4c-0.2,0.1-0.5,0.1-0.8,0.1c-17.2-1.1-20.6-15.6-21.3-21.2c0-0.3,0-0.6,0.1-0.8
						c0.1-0.3,0.2-0.5,0.4-0.7c0.2-0.2,0.4-0.4,0.7-0.5c0.3-0.1,0.5-0.2,0.8-0.2c0.4,0,3.9,0,4.3,0c0.4,0,0.8,0.1,1.1,0.3
						c0.3,0.2,0.6,0.5,0.7,0.9c0.1,0.2,0.9,2.2,1,2.5c0.2,0.3,0.2,0.7,0.1,1.1c-0.1,0.4-0.3,0.7-0.5,1c-0.2,0.2-1.8,1.8-2,2
						c0,0,1.2,7.8,8.9,8.8C35.2,35.8,36.6,34.4,36.8,34.2z"/>
				</g>
				<g>
					<g>
						<path id="aaAIRxbN9_1_" class="st2" d="M36.8,34.2c0.3-0.3,0.6-0.4,1-0.5c0.4-0.1,0.8,0,1.1,0.1c0.2,0.1,2.2,0.9,2.4,1
							c0.4,0.1,0.7,0.4,0.9,0.7s0.3,0.7,0.3,1.1c0,0.5,0,4,0,4.5c0,0.3-0.1,0.5-0.2,0.8c-0.1,0.2-0.3,0.5-0.5,0.6
							c-0.2,0.2-0.4,0.3-0.7,0.4c-0.2,0.1-0.5,0.1-0.8,0.1c-17.2-1.1-20.6-15.6-21.3-21.2c0-0.3,0-0.6,0.1-0.8
							c0.1-0.3,0.2-0.5,0.4-0.7c0.2-0.2,0.4-0.4,0.7-0.5c0.3-0.1,0.5-0.2,0.8-0.2c0.4,0,3.9,0,4.3,0c0.4,0,0.8,0.1,1.1,0.3
							c0.3,0.2,0.6,0.5,0.7,0.9c0.1,0.2,0.9,2.2,1,2.5c0.2,0.3,0.2,0.7,0.1,1.1c-0.1,0.4-0.3,0.7-0.5,1c-0.2,0.2-1.8,1.8-2,2
							c0,0,1.2,7.8,8.9,8.8C35.2,35.8,36.6,34.4,36.8,34.2z"/>
					</g>
				</g>
			</g>
		</g>
	</g>
</g>
</svg>
